<svg width="68" height="29" viewBox="0 0 68 29" fill="none" xmlns="http://www.w3.org/2000/svg">
<path d="M63.1012 4.80246C63.6884 4.80246 64.1643 4.32704 64.1643 3.74058C64.1643 3.15413 63.6884 2.67871 63.1012 2.67871C62.5141 2.67871 62.0381 3.15413 62.0381 3.74058C62.0381 4.32704 62.5141 4.80246 63.1012 4.80246Z" fill="#0E6F3B" stroke="#838383" stroke-width="0.28" stroke-miterlimit="10"/>
<path d="M63.0923 6.4304C64.5796 6.4304 65.7853 5.22613 65.7853 3.74059C65.7853 2.25505 64.5796 1.05078 63.0923 1.05078C61.6051 1.05078 60.3994 2.25505 60.3994 3.74059C60.3994 5.22613 61.6051 6.4304 63.0923 6.4304Z" fill="#0E6F3B" stroke="#838383" stroke-width="0.28" stroke-miterlimit="10"/>
<path d="M63.1012 10.1823C63.6884 10.1823 64.1643 9.70693 64.1643 9.12047C64.1643 8.53401 63.6884 8.05859 63.1012 8.05859C62.5141 8.05859 62.0381 8.53401 62.0381 9.12047C62.0381 9.70693 62.5141 10.1823 63.1012 10.1823Z" fill="#0E6F3B" stroke="#838383" stroke-width="0.28" stroke-miterlimit="10"/>
<path d="M63.0923 11.8117C64.5796 11.8117 65.7853 10.6075 65.7853 9.12194C65.7853 7.6364 64.5796 6.43213 63.0923 6.43213C61.6051 6.43213 60.3994 7.6364 60.3994 9.12194C60.3994 10.6075 61.6051 11.8117 63.0923 11.8117Z" fill="#0E6F3B" stroke="#838383" stroke-width="0.28" stroke-miterlimit="10"/>
<path d="M64.1793 10.1779C64.7665 10.1779 65.2424 9.70253 65.2424 9.11607C65.2424 8.52962 64.7665 8.0542 64.1793 8.0542C63.5922 8.0542 63.1162 8.52962 63.1162 9.11607C63.1162 9.70253 63.5922 10.1779 64.1793 10.1779Z" fill="#0E6F3B" stroke="#838383" stroke-width="0.28" stroke-miterlimit="10"/>
<path d="M64.1705 11.8049C65.6578 11.8049 66.8634 10.6006 66.8634 9.1151C66.8634 7.62956 65.6578 6.42529 64.1705 6.42529C62.6832 6.42529 61.4775 7.62956 61.4775 9.1151C61.4775 10.6006 62.6832 11.8049 64.1705 11.8049Z" fill="#0E6F3B" stroke="#838383" stroke-width="0.28" stroke-miterlimit="10"/>
<path d="M64.1793 20.9426C64.7665 20.9426 65.2424 20.4672 65.2424 19.8807C65.2424 19.2943 64.7665 18.8188 64.1793 18.8188C63.5922 18.8188 63.1162 19.2943 63.1162 19.8807C63.1162 20.4672 63.5922 20.9426 64.1793 20.9426Z" fill="#0E6F3B" stroke="#838383" stroke-width="0.28" stroke-miterlimit="10"/>
<path d="M64.1705 22.572C65.6578 22.572 66.8634 21.3677 66.8634 19.8822C66.8634 18.3967 65.6578 17.1924 64.1705 17.1924C62.6832 17.1924 61.4775 18.3967 61.4775 19.8822C61.4775 21.3677 62.6832 22.572 64.1705 22.572Z" fill="#0E6F3B" stroke="#838383" stroke-width="0.28" stroke-miterlimit="10"/>
<path d="M63.1119 15.5627C63.6991 15.5627 64.1751 15.0873 64.1751 14.5008C64.1751 13.9144 63.6991 13.439 63.1119 13.439C62.5248 13.439 62.0488 13.9144 62.0488 14.5008C62.0488 15.0873 62.5248 15.5627 63.1119 15.5627Z" fill="#0E6F3B" stroke="#838383" stroke-width="0.28" stroke-miterlimit="10"/>
<path d="M63.1012 17.1907C64.5884 17.1907 65.7941 15.9864 65.7941 14.5008C65.7941 13.0153 64.5884 11.811 63.1012 11.811C61.6139 11.811 60.4082 13.0153 60.4082 14.5008C60.4082 15.9864 61.6139 17.1907 63.1012 17.1907Z" fill="#0E6F3B" stroke="#838383" stroke-width="0.28" stroke-miterlimit="10"/>
<path d="M63.1012 20.9426C63.6884 20.9426 64.1643 20.4672 64.1643 19.8807C64.1643 19.2943 63.6884 18.8188 63.1012 18.8188C62.5141 18.8188 62.0381 19.2943 62.0381 19.8807C62.0381 20.4672 62.5141 20.9426 63.1012 20.9426Z" fill="#0E6F3B" stroke="#838383" stroke-width="0.28" stroke-miterlimit="10"/>
<path d="M63.0923 22.572C64.5796 22.572 65.7853 21.3677 65.7853 19.8822C65.7853 18.3967 64.5796 17.1924 63.0923 17.1924C61.6051 17.1924 60.3994 18.3967 60.3994 19.8822C60.3994 21.3677 61.6051 22.572 63.0923 22.572Z" fill="#0E6F3B" stroke="#838383" stroke-width="0.28" stroke-miterlimit="10"/>
<path d="M63.1012 26.324C63.6884 26.324 64.1643 25.8485 64.1643 25.2621C64.1643 24.6756 63.6884 24.2002 63.1012 24.2002C62.5141 24.2002 62.0381 24.6756 62.0381 25.2621C62.0381 25.8485 62.5141 26.324 63.1012 26.324Z" fill="#0E6F3B" stroke="#838383" stroke-width="0.28" stroke-miterlimit="10"/>
<path d="M63.0923 27.9509C64.5796 27.9509 65.7853 26.7466 65.7853 25.2611C65.7853 23.7756 64.5796 22.5713 63.0923 22.5713C61.6051 22.5713 60.3994 23.7756 60.3994 25.2611C60.3994 26.7466 61.6051 27.9509 63.0923 27.9509Z" fill="#0E6F3B" stroke="#838383" stroke-width="0.28" stroke-miterlimit="10"/>
<path d="M57.7057 4.80246C58.2928 4.80246 58.7688 4.32704 58.7688 3.74058C58.7688 3.15413 58.2928 2.67871 57.7057 2.67871C57.1185 2.67871 56.6426 3.15413 56.6426 3.74058C56.6426 4.32704 57.1185 4.80246 57.7057 4.80246Z" fill="#0E6F3B" stroke="#838383" stroke-width="0.28" stroke-miterlimit="10"/>
<path d="M57.6949 6.4304C59.1822 6.4304 60.3878 5.22613 60.3878 3.74059C60.3878 2.25505 59.1822 1.05078 57.6949 1.05078C56.2076 1.05078 55.002 2.25505 55.002 3.74059C55.002 5.22613 56.2076 6.4304 57.6949 6.4304Z" fill="#0E6F3B" stroke="#838383" stroke-width="0.28" stroke-miterlimit="10"/>
<path d="M57.7057 10.1823C58.2928 10.1823 58.7688 9.70693 58.7688 9.12047C58.7688 8.53401 58.2928 8.05859 57.7057 8.05859C57.1185 8.05859 56.6426 8.53401 56.6426 9.12047C56.6426 9.70693 57.1185 10.1823 57.7057 10.1823Z" fill="#0E6F3B" stroke="#838383" stroke-width="0.28" stroke-miterlimit="10"/>
<path d="M57.6949 11.8117C59.1822 11.8117 60.3878 10.6075 60.3878 9.12194C60.3878 7.6364 59.1822 6.43213 57.6949 6.43213C56.2076 6.43213 55.002 7.6364 55.002 9.12194C55.002 10.6075 56.2076 11.8117 57.6949 11.8117Z" fill="#0E6F3B" stroke="#838383" stroke-width="0.28" stroke-miterlimit="10"/>
<path d="M57.7145 15.5627C58.3016 15.5627 58.7776 15.0873 58.7776 14.5008C58.7776 13.9144 58.3016 13.439 57.7145 13.439C57.1273 13.439 56.6514 13.9144 56.6514 14.5008C56.6514 15.0873 57.1273 15.5627 57.7145 15.5627Z" fill="#0E6F3B" stroke="#838383" stroke-width="0.28" stroke-miterlimit="10"/>
<path d="M57.7047 17.1907C59.1919 17.1907 60.3976 15.9864 60.3976 14.5008C60.3976 13.0153 59.1919 11.811 57.7047 11.811C56.2174 11.811 55.0117 13.0153 55.0117 14.5008C55.0117 15.9864 56.2174 17.1907 57.7047 17.1907Z" fill="#0E6F3B" stroke="#838383" stroke-width="0.28" stroke-miterlimit="10"/>
<path d="M57.7057 20.9426C58.2928 20.9426 58.7688 20.4672 58.7688 19.8807C58.7688 19.2943 58.2928 18.8188 57.7057 18.8188C57.1185 18.8188 56.6426 19.2943 56.6426 19.8807C56.6426 20.4672 57.1185 20.9426 57.7057 20.9426Z" fill="#0E6F3B" stroke="#838383" stroke-width="0.28" stroke-miterlimit="10"/>
<path d="M57.6949 22.572C59.1822 22.572 60.3878 21.3677 60.3878 19.8822C60.3878 18.3967 59.1822 17.1924 57.6949 17.1924C56.2076 17.1924 55.002 18.3967 55.002 19.8822C55.002 21.3677 56.2076 22.572 57.6949 22.572Z" fill="#0E6F3B" stroke="#838383" stroke-width="0.28" stroke-miterlimit="10"/>
<path d="M57.7057 26.324C58.2928 26.324 58.7688 25.8485 58.7688 25.2621C58.7688 24.6756 58.2928 24.2002 57.7057 24.2002C57.1185 24.2002 56.6426 24.6756 56.6426 25.2621C56.6426 25.8485 57.1185 26.324 57.7057 26.324Z" fill="#0E6F3B" stroke="#838383" stroke-width="0.28" stroke-miterlimit="10"/>
<path d="M57.6949 27.9509C59.1822 27.9509 60.3878 26.7466 60.3878 25.2611C60.3878 23.7756 59.1822 22.5713 57.6949 22.5713C56.2076 22.5713 55.002 23.7756 55.002 25.2611C55.002 26.7466 56.2076 27.9509 57.6949 27.9509Z" fill="#0E6F3B" stroke="#838383" stroke-width="0.28" stroke-miterlimit="10"/>
<path d="M52.3102 4.80246C52.8973 4.80246 53.3733 4.32704 53.3733 3.74058C53.3733 3.15413 52.8973 2.67871 52.3102 2.67871C51.723 2.67871 51.2471 3.15413 51.2471 3.74058C51.2471 4.32704 51.723 4.80246 52.3102 4.80246Z" fill="#0E6F3B" stroke="#838383" stroke-width="0.28" stroke-miterlimit="10"/>
<path d="M52.3013 6.4304C53.7886 6.4304 54.9943 5.22613 54.9943 3.74059C54.9943 2.25505 53.7886 1.05078 52.3013 1.05078C50.8141 1.05078 49.6084 2.25505 49.6084 3.74059C49.6084 5.22613 50.8141 6.4304 52.3013 6.4304Z" fill="#0E6F3B" stroke="#838383" stroke-width="0.28" stroke-miterlimit="10"/>
<path d="M52.3102 10.1823C52.8973 10.1823 53.3733 9.70693 53.3733 9.12047C53.3733 8.53401 52.8973 8.05859 52.3102 8.05859C51.723 8.05859 51.2471 8.53401 51.2471 9.12047C51.2471 9.70693 51.723 10.1823 52.3102 10.1823Z" fill="#0E6F3B" stroke="#838383" stroke-width="0.28" stroke-miterlimit="10"/>
<path d="M52.3013 11.8117C53.7886 11.8117 54.9943 10.6075 54.9943 9.12194C54.9943 7.6364 53.7886 6.43213 52.3013 6.43213C50.8141 6.43213 49.6084 7.6364 49.6084 9.12194C49.6084 10.6075 50.8141 11.8117 52.3013 11.8117Z" fill="#0E6F3B" stroke="#838383" stroke-width="0.28" stroke-miterlimit="10"/>
<path d="M52.318 15.5627C52.9051 15.5627 53.3811 15.0873 53.3811 14.5008C53.3811 13.9144 52.9051 13.439 52.318 13.439C51.7308 13.439 51.2549 13.9144 51.2549 14.5008C51.2549 15.0873 51.7308 15.5627 52.318 15.5627Z" fill="#0E6F3B" stroke="#838383" stroke-width="0.28" stroke-miterlimit="10"/>
<path d="M52.3092 17.1907C53.7964 17.1907 55.0021 15.9864 55.0021 14.5008C55.0021 13.0153 53.7964 11.811 52.3092 11.811C50.8219 11.811 49.6162 13.0153 49.6162 14.5008C49.6162 15.9864 50.8219 17.1907 52.3092 17.1907Z" fill="#0E6F3B" stroke="#838383" stroke-width="0.28" stroke-miterlimit="10"/>
<path d="M52.3102 20.9426C52.8973 20.9426 53.3733 20.4672 53.3733 19.8807C53.3733 19.2943 52.8973 18.8188 52.3102 18.8188C51.723 18.8188 51.2471 19.2943 51.2471 19.8807C51.2471 20.4672 51.723 20.9426 52.3102 20.9426Z" fill="#0E6F3B" stroke="#838383" stroke-width="0.28" stroke-miterlimit="10"/>
<path d="M52.3013 22.572C53.7886 22.572 54.9943 21.3677 54.9943 19.8822C54.9943 18.3967 53.7886 17.1924 52.3013 17.1924C50.8141 17.1924 49.6084 18.3967 49.6084 19.8822C49.6084 21.3677 50.8141 22.572 52.3013 22.572Z" fill="#0E6F3B" stroke="#838383" stroke-width="0.28" stroke-miterlimit="10"/>
<path d="M52.3102 26.324C52.8973 26.324 53.3733 25.8485 53.3733 25.2621C53.3733 24.6756 52.8973 24.2002 52.3102 24.2002C51.723 24.2002 51.2471 24.6756 51.2471 25.2621C51.2471 25.8485 51.723 26.324 52.3102 26.324Z" fill="#0E6F3B" stroke="#838383" stroke-width="0.28" stroke-miterlimit="10"/>
<path d="M52.3013 27.9509C53.7886 27.9509 54.9943 26.7466 54.9943 25.2611C54.9943 23.7756 53.7886 22.5713 52.3013 22.5713C50.8141 22.5713 49.6084 23.7756 49.6084 25.2611C49.6084 26.7466 50.8141 27.9509 52.3013 27.9509Z" fill="#0E6F3B" stroke="#838383" stroke-width="0.28" stroke-miterlimit="10"/>
<path d="M46.9137 4.80246C47.5008 4.80246 47.9768 4.32704 47.9768 3.74058C47.9768 3.15413 47.5008 2.67871 46.9137 2.67871C46.3266 2.67871 45.8506 3.15413 45.8506 3.74058C45.8506 4.32704 46.3266 4.80246 46.9137 4.80246Z" fill="#0E6F3B" stroke="#838383" stroke-width="0.28" stroke-miterlimit="10"/>
<path d="M46.9049 6.4304C48.3921 6.4304 49.5978 5.22613 49.5978 3.74059C49.5978 2.25505 48.3921 1.05078 46.9049 1.05078C45.4176 1.05078 44.2119 2.25505 44.2119 3.74059C44.2119 5.22613 45.4176 6.4304 46.9049 6.4304Z" fill="#0E6F3B" stroke="#838383" stroke-width="0.28" stroke-miterlimit="10"/>
<path d="M46.9137 10.1823C47.5008 10.1823 47.9768 9.70693 47.9768 9.12047C47.9768 8.53401 47.5008 8.05859 46.9137 8.05859C46.3266 8.05859 45.8506 8.53401 45.8506 9.12047C45.8506 9.70693 46.3266 10.1823 46.9137 10.1823Z" fill="#0E6F3B" stroke="#838383" stroke-width="0.28" stroke-miterlimit="10"/>
<path d="M46.9049 11.8117C48.3921 11.8117 49.5978 10.6075 49.5978 9.12194C49.5978 7.6364 48.3921 6.43213 46.9049 6.43213C45.4176 6.43213 44.2119 7.6364 44.2119 9.12194C44.2119 10.6075 45.4176 11.8117 46.9049 11.8117Z" fill="#0E6F3B" stroke="#838383" stroke-width="0.28" stroke-miterlimit="10"/>
<path d="M46.9244 15.5627C47.5116 15.5627 47.9876 15.0873 47.9876 14.5008C47.9876 13.9144 47.5116 13.439 46.9244 13.439C46.3373 13.439 45.8613 13.9144 45.8613 14.5008C45.8613 15.0873 46.3373 15.5627 46.9244 15.5627Z" fill="#0E6F3B" stroke="#838383" stroke-width="0.28" stroke-miterlimit="10"/>
<path d="M46.9137 17.1907C48.4009 17.1907 49.6066 15.9864 49.6066 14.5008C49.6066 13.0153 48.4009 11.811 46.9137 11.811C45.4264 11.811 44.2207 13.0153 44.2207 14.5008C44.2207 15.9864 45.4264 17.1907 46.9137 17.1907Z" fill="#0E6F3B" stroke="#838383" stroke-width="0.28" stroke-miterlimit="10"/>
<path d="M46.9137 20.9426C47.5008 20.9426 47.9768 20.4672 47.9768 19.8807C47.9768 19.2943 47.5008 18.8188 46.9137 18.8188C46.3266 18.8188 45.8506 19.2943 45.8506 19.8807C45.8506 20.4672 46.3266 20.9426 46.9137 20.9426Z" fill="#0E6F3B" stroke="#838383" stroke-width="0.28" stroke-miterlimit="10"/>
<path d="M46.9049 22.572C48.3921 22.572 49.5978 21.3677 49.5978 19.8822C49.5978 18.3967 48.3921 17.1924 46.9049 17.1924C45.4176 17.1924 44.2119 18.3967 44.2119 19.8822C44.2119 21.3677 45.4176 22.572 46.9049 22.572Z" fill="#0E6F3B" stroke="#838383" stroke-width="0.28" stroke-miterlimit="10"/>
<path d="M46.9137 26.324C47.5008 26.324 47.9768 25.8485 47.9768 25.2621C47.9768 24.6756 47.5008 24.2002 46.9137 24.2002C46.3266 24.2002 45.8506 24.6756 45.8506 25.2621C45.8506 25.8485 46.3266 26.324 46.9137 26.324Z" fill="#0E6F3B" stroke="#838383" stroke-width="0.28" stroke-miterlimit="10"/>
<path d="M46.9049 27.9509C48.3921 27.9509 49.5978 26.7466 49.5978 25.2611C49.5978 23.7756 48.3921 22.5713 46.9049 22.5713C45.4176 22.5713 44.2119 23.7756 44.2119 25.2611C44.2119 26.7466 45.4176 27.9509 46.9049 27.9509Z" fill="#0E6F3B" stroke="#838383" stroke-width="0.28" stroke-miterlimit="10"/>
<path d="M41.5182 4.80246C42.1053 4.80246 42.5813 4.32704 42.5813 3.74058C42.5813 3.15413 42.1053 2.67871 41.5182 2.67871C40.9311 2.67871 40.4551 3.15413 40.4551 3.74058C40.4551 4.32704 40.9311 4.80246 41.5182 4.80246Z" fill="#0E6F3B" stroke="#838383" stroke-width="0.28" stroke-miterlimit="10"/>
<path d="M41.5074 6.4304C42.9947 6.4304 44.2003 5.22613 44.2003 3.74059C44.2003 2.25505 42.9947 1.05078 41.5074 1.05078C40.0201 1.05078 38.8145 2.25505 38.8145 3.74059C38.8145 5.22613 40.0201 6.4304 41.5074 6.4304Z" fill="#0E6F3B" stroke="#838383" stroke-width="0.28" stroke-miterlimit="10"/>
<path d="M41.5182 10.1823C42.1053 10.1823 42.5813 9.70693 42.5813 9.12047C42.5813 8.53401 42.1053 8.05859 41.5182 8.05859C40.9311 8.05859 40.4551 8.53401 40.4551 9.12047C40.4551 9.70693 40.9311 10.1823 41.5182 10.1823Z" fill="#0E6F3B" stroke="#838383" stroke-width="0.28" stroke-miterlimit="10"/>
<path d="M41.5074 11.8117C42.9947 11.8117 44.2003 10.6075 44.2003 9.12194C44.2003 7.6364 42.9947 6.43213 41.5074 6.43213C40.0201 6.43213 38.8145 7.6364 38.8145 9.12194C38.8145 10.6075 40.0201 11.8117 41.5074 11.8117Z" fill="#0E6F3B" stroke="#838383" stroke-width="0.28" stroke-miterlimit="10"/>
<path d="M41.528 15.5627C42.1151 15.5627 42.5911 15.0873 42.5911 14.5008C42.5911 13.9144 42.1151 13.439 41.528 13.439C40.9408 13.439 40.4648 13.9144 40.4648 14.5008C40.4648 15.0873 40.9408 15.5627 41.528 15.5627Z" fill="#0E6F3B" stroke="#838383" stroke-width="0.28" stroke-miterlimit="10"/>
<path d="M41.5181 17.1907C43.0054 17.1907 44.2111 15.9864 44.2111 14.5008C44.2111 13.0153 43.0054 11.811 41.5181 11.811C40.0309 11.811 38.8252 13.0153 38.8252 14.5008C38.8252 15.9864 40.0309 17.1907 41.5181 17.1907Z" fill="#0E6F3B" stroke="#838383" stroke-width="0.28" stroke-miterlimit="10"/>
<path d="M41.5182 20.9426C42.1053 20.9426 42.5813 20.4672 42.5813 19.8807C42.5813 19.2943 42.1053 18.8188 41.5182 18.8188C40.9311 18.8188 40.4551 19.2943 40.4551 19.8807C40.4551 20.4672 40.9311 20.9426 41.5182 20.9426Z" fill="#0E6F3B" stroke="#838383" stroke-width="0.28" stroke-miterlimit="10"/>
<path d="M41.5074 22.572C42.9947 22.572 44.2003 21.3677 44.2003 19.8822C44.2003 18.3967 42.9947 17.1924 41.5074 17.1924C40.0201 17.1924 38.8145 18.3967 38.8145 19.8822C38.8145 21.3677 40.0201 22.572 41.5074 22.572Z" fill="#0E6F3B" stroke="#838383" stroke-width="0.28" stroke-miterlimit="10"/>
<path d="M41.5182 26.324C42.1053 26.324 42.5813 25.8485 42.5813 25.2621C42.5813 24.6756 42.1053 24.2002 41.5182 24.2002C40.9311 24.2002 40.4551 24.6756 40.4551 25.2621C40.4551 25.8485 40.9311 26.324 41.5182 26.324Z" fill="#0E6F3B" stroke="#838383" stroke-width="0.28" stroke-miterlimit="10"/>
<path d="M41.5074 27.9509C42.9947 27.9509 44.2003 26.7466 44.2003 25.2611C44.2003 23.7756 42.9947 22.5713 41.5074 22.5713C40.0201 22.5713 38.8145 23.7756 38.8145 25.2611C38.8145 26.7466 40.0201 27.9509 41.5074 27.9509Z" fill="#0E6F3B" stroke="#838383" stroke-width="0.28" stroke-miterlimit="10"/>
<path d="M36.1227 4.80246C36.7098 4.80246 37.1858 4.32704 37.1858 3.74058C37.1858 3.15413 36.7098 2.67871 36.1227 2.67871C35.5355 2.67871 35.0596 3.15413 35.0596 3.74058C35.0596 4.32704 35.5355 4.80246 36.1227 4.80246Z" fill="#0E6F3B" stroke="#838383" stroke-width="0.28" stroke-miterlimit="10"/>
<path d="M36.1129 6.4304C37.6001 6.4304 38.8058 5.22613 38.8058 3.74059C38.8058 2.25505 37.6001 1.05078 36.1129 1.05078C34.6256 1.05078 33.4199 2.25505 33.4199 3.74059C33.4199 5.22613 34.6256 6.4304 36.1129 6.4304Z" fill="#0E6F3B" stroke="#838383" stroke-width="0.28" stroke-miterlimit="10"/>
<path d="M36.1227 10.1823C36.7098 10.1823 37.1858 9.70693 37.1858 9.12047C37.1858 8.53401 36.7098 8.05859 36.1227 8.05859C35.5355 8.05859 35.0596 8.53401 35.0596 9.12047C35.0596 9.70693 35.5355 10.1823 36.1227 10.1823Z" fill="#0E6F3B" stroke="#838383" stroke-width="0.28" stroke-miterlimit="10"/>
<path d="M36.1129 11.8117C37.6001 11.8117 38.8058 10.6075 38.8058 9.12194C38.8058 7.6364 37.6001 6.43213 36.1129 6.43213C34.6256 6.43213 33.4199 7.6364 33.4199 9.12194C33.4199 10.6075 34.6256 11.8117 36.1129 11.8117Z" fill="#0E6F3B" stroke="#838383" stroke-width="0.28" stroke-miterlimit="10"/>
<path d="M36.1315 15.5627C36.7186 15.5627 37.1946 15.0873 37.1946 14.5008C37.1946 13.9144 36.7186 13.439 36.1315 13.439C35.5443 13.439 35.0684 13.9144 35.0684 14.5008C35.0684 15.0873 35.5443 15.5627 36.1315 15.5627Z" fill="#0E6F3B" stroke="#838383" stroke-width="0.28" stroke-miterlimit="10"/>
<path d="M36.1217 17.1907C37.6089 17.1907 38.8146 15.9864 38.8146 14.5008C38.8146 13.0153 37.6089 11.811 36.1217 11.811C34.6344 11.811 33.4287 13.0153 33.4287 14.5008C33.4287 15.9864 34.6344 17.1907 36.1217 17.1907Z" fill="#0E6F3B" stroke="#838383" stroke-width="0.28" stroke-miterlimit="10"/>
<path d="M36.1227 20.9426C36.7098 20.9426 37.1858 20.4672 37.1858 19.8807C37.1858 19.2943 36.7098 18.8188 36.1227 18.8188C35.5355 18.8188 35.0596 19.2943 35.0596 19.8807C35.0596 20.4672 35.5355 20.9426 36.1227 20.9426Z" fill="#0E6F3B" stroke="#838383" stroke-width="0.28" stroke-miterlimit="10"/>
<path d="M36.1129 22.572C37.6001 22.572 38.8058 21.3677 38.8058 19.8822C38.8058 18.3967 37.6001 17.1924 36.1129 17.1924C34.6256 17.1924 33.4199 18.3967 33.4199 19.8822C33.4199 21.3677 34.6256 22.572 36.1129 22.572Z" fill="#0E6F3B" stroke="#838383" stroke-width="0.28" stroke-miterlimit="10"/>
<path d="M36.1227 26.324C36.7098 26.324 37.1858 25.8485 37.1858 25.2621C37.1858 24.6756 36.7098 24.2002 36.1227 24.2002C35.5355 24.2002 35.0596 24.6756 35.0596 25.2621C35.0596 25.8485 35.5355 26.324 36.1227 26.324Z" fill="#0E6F3B" stroke="#838383" stroke-width="0.28" stroke-miterlimit="10"/>
<path d="M36.1129 27.9509C37.6001 27.9509 38.8058 26.7466 38.8058 25.2611C38.8058 23.7756 37.6001 22.5713 36.1129 22.5713C34.6256 22.5713 33.4199 23.7756 33.4199 25.2611C33.4199 26.7466 34.6256 27.9509 36.1129 27.9509Z" fill="#0E6F3B" stroke="#838383" stroke-width="0.28" stroke-miterlimit="10"/>
<path d="M30.7252 4.80246C31.3124 4.80246 31.7883 4.32704 31.7883 3.74058C31.7883 3.15413 31.3124 2.67871 30.7252 2.67871C30.1381 2.67871 29.6621 3.15413 29.6621 3.74058C29.6621 4.32704 30.1381 4.80246 30.7252 4.80246Z" fill="#0E6F3B" stroke="#838383" stroke-width="0.28" stroke-miterlimit="10"/>
<path d="M30.7154 6.4304C32.2027 6.4304 33.4084 5.22613 33.4084 3.74059C33.4084 2.25505 32.2027 1.05078 30.7154 1.05078C29.2281 1.05078 28.0225 2.25505 28.0225 3.74059C28.0225 5.22613 29.2281 6.4304 30.7154 6.4304Z" fill="#0E6F3B" stroke="#838383" stroke-width="0.28" stroke-miterlimit="10"/>
<path d="M30.7252 10.1823C31.3124 10.1823 31.7883 9.70693 31.7883 9.12047C31.7883 8.53401 31.3124 8.05859 30.7252 8.05859C30.1381 8.05859 29.6621 8.53401 29.6621 9.12047C29.6621 9.70693 30.1381 10.1823 30.7252 10.1823Z" fill="#0E6F3B" stroke="#838383" stroke-width="0.28" stroke-miterlimit="10"/>
<path d="M30.7154 11.8117C32.2027 11.8117 33.4084 10.6075 33.4084 9.12194C33.4084 7.6364 32.2027 6.43213 30.7154 6.43213C29.2281 6.43213 28.0225 7.6364 28.0225 9.12194C28.0225 10.6075 29.2281 11.8117 30.7154 11.8117Z" fill="#0E6F3B" stroke="#838383" stroke-width="0.28" stroke-miterlimit="10"/>
<path d="M30.733 15.5627C31.3202 15.5627 31.7961 15.0873 31.7961 14.5008C31.7961 13.9144 31.3202 13.439 30.733 13.439C30.1459 13.439 29.6699 13.9144 29.6699 14.5008C29.6699 15.0873 30.1459 15.5627 30.733 15.5627Z" fill="#0E6F3B" stroke="#838383" stroke-width="0.28" stroke-miterlimit="10"/>
<path d="M30.7242 17.1907C32.2115 17.1907 33.4171 15.9864 33.4171 14.5008C33.4171 13.0153 32.2115 11.811 30.7242 11.811C29.2369 11.811 28.0312 13.0153 28.0312 14.5008C28.0312 15.9864 29.2369 17.1907 30.7242 17.1907Z" fill="#0E6F3B" stroke="#838383" stroke-width="0.28" stroke-miterlimit="10"/>
<path d="M30.7252 20.9426C31.3124 20.9426 31.7883 20.4672 31.7883 19.8807C31.7883 19.2943 31.3124 18.8188 30.7252 18.8188C30.1381 18.8188 29.6621 19.2943 29.6621 19.8807C29.6621 20.4672 30.1381 20.9426 30.7252 20.9426Z" fill="#0E6F3B" stroke="#838383" stroke-width="0.28" stroke-miterlimit="10"/>
<path d="M30.7154 22.572C32.2027 22.572 33.4084 21.3677 33.4084 19.8822C33.4084 18.3967 32.2027 17.1924 30.7154 17.1924C29.2281 17.1924 28.0225 18.3967 28.0225 19.8822C28.0225 21.3677 29.2281 22.572 30.7154 22.572Z" fill="#0E6F3B" stroke="#838383" stroke-width="0.28" stroke-miterlimit="10"/>
<path d="M30.7252 26.324C31.3124 26.324 31.7883 25.8485 31.7883 25.2621C31.7883 24.6756 31.3124 24.2002 30.7252 24.2002C30.1381 24.2002 29.6621 24.6756 29.6621 25.2621C29.6621 25.8485 30.1381 26.324 30.7252 26.324Z" fill="#0E6F3B" stroke="#838383" stroke-width="0.28" stroke-miterlimit="10"/>
<path d="M30.7154 27.9509C32.2027 27.9509 33.4084 26.7466 33.4084 25.2611C33.4084 23.7756 32.2027 22.5713 30.7154 22.5713C29.2281 22.5713 28.0225 23.7756 28.0225 25.2611C28.0225 26.7466 29.2281 27.9509 30.7154 27.9509Z" fill="#0E6F3B" stroke="#838383" stroke-width="0.28" stroke-miterlimit="10"/>
<path d="M25.3287 4.80246C25.9159 4.80246 26.3919 4.32704 26.3919 3.74058C26.3919 3.15413 25.9159 2.67871 25.3287 2.67871C24.7416 2.67871 24.2656 3.15413 24.2656 3.74058C24.2656 4.32704 24.7416 4.80246 25.3287 4.80246Z" fill="#0E6F3B" stroke="#838383" stroke-width="0.28" stroke-miterlimit="10"/>
<path d="M25.3189 6.4304C26.8062 6.4304 28.0119 5.22613 28.0119 3.74059C28.0119 2.25505 26.8062 1.05078 25.3189 1.05078C23.8317 1.05078 22.626 2.25505 22.626 3.74059C22.626 5.22613 23.8317 6.4304 25.3189 6.4304Z" fill="#0E6F3B" stroke="#838383" stroke-width="0.28" stroke-miterlimit="10"/>
<path d="M25.3287 10.1823C25.9159 10.1823 26.3919 9.70693 26.3919 9.12047C26.3919 8.53401 25.9159 8.05859 25.3287 8.05859C24.7416 8.05859 24.2656 8.53401 24.2656 9.12047C24.2656 9.70693 24.7416 10.1823 25.3287 10.1823Z" fill="#0E6F3B" stroke="#838383" stroke-width="0.28" stroke-miterlimit="10"/>
<path d="M25.3189 11.8117C26.8062 11.8117 28.0119 10.6075 28.0119 9.12194C28.0119 7.6364 26.8062 6.43213 25.3189 6.43213C23.8317 6.43213 22.626 7.6364 22.626 9.12194C22.626 10.6075 23.8317 11.8117 25.3189 11.8117Z" fill="#0E6F3B" stroke="#838383" stroke-width="0.28" stroke-miterlimit="10"/>
<path d="M25.3385 15.5627C25.9256 15.5627 26.4016 15.0873 26.4016 14.5008C26.4016 13.9144 25.9256 13.439 25.3385 13.439C24.7514 13.439 24.2754 13.9144 24.2754 14.5008C24.2754 15.0873 24.7514 15.5627 25.3385 15.5627Z" fill="#0E6F3B" stroke="#838383" stroke-width="0.28" stroke-miterlimit="10"/>
<path d="M25.3297 17.1907C26.8169 17.1907 28.0226 15.9864 28.0226 14.5008C28.0226 13.0153 26.8169 11.811 25.3297 11.811C23.8424 11.811 22.6367 13.0153 22.6367 14.5008C22.6367 15.9864 23.8424 17.1907 25.3297 17.1907Z" fill="#0E6F3B" stroke="#838383" stroke-width="0.28" stroke-miterlimit="10"/>
<path d="M25.3287 20.9426C25.9159 20.9426 26.3919 20.4672 26.3919 19.8807C26.3919 19.2943 25.9159 18.8188 25.3287 18.8188C24.7416 18.8188 24.2656 19.2943 24.2656 19.8807C24.2656 20.4672 24.7416 20.9426 25.3287 20.9426Z" fill="#0E6F3B" stroke="#838383" stroke-width="0.28" stroke-miterlimit="10"/>
<path d="M25.3189 22.572C26.8062 22.572 28.0119 21.3677 28.0119 19.8822C28.0119 18.3967 26.8062 17.1924 25.3189 17.1924C23.8317 17.1924 22.626 18.3967 22.626 19.8822C22.626 21.3677 23.8317 22.572 25.3189 22.572Z" fill="#0E6F3B" stroke="#838383" stroke-width="0.28" stroke-miterlimit="10"/>
<path d="M25.3287 26.324C25.9159 26.324 26.3919 25.8485 26.3919 25.2621C26.3919 24.6756 25.9159 24.2002 25.3287 24.2002C24.7416 24.2002 24.2656 24.6756 24.2656 25.2621C24.2656 25.8485 24.7416 26.324 25.3287 26.324Z" fill="#0E6F3B" stroke="#838383" stroke-width="0.28" stroke-miterlimit="10"/>
<path d="M25.3189 27.9509C26.8062 27.9509 28.0119 26.7466 28.0119 25.2611C28.0119 23.7756 26.8062 22.5713 25.3189 22.5713C23.8317 22.5713 22.626 23.7756 22.626 25.2611C22.626 26.7466 23.8317 27.9509 25.3189 27.9509Z" fill="#0E6F3B" stroke="#838383" stroke-width="0.28" stroke-miterlimit="10"/>
<path d="M19.9323 4.80246C20.5194 4.80246 20.9954 4.32704 20.9954 3.74058C20.9954 3.15413 20.5194 2.67871 19.9323 2.67871C19.3451 2.67871 18.8691 3.15413 18.8691 3.74058C18.8691 4.32704 19.3451 4.80246 19.9323 4.80246Z" fill="#0E6F3B" stroke="#838383" stroke-width="0.28" stroke-miterlimit="10"/>
<path d="M19.9234 6.4304C21.4107 6.4304 22.6164 5.22613 22.6164 3.74059C22.6164 2.25505 21.4107 1.05078 19.9234 1.05078C18.4361 1.05078 17.2305 2.25505 17.2305 3.74059C17.2305 5.22613 18.4361 6.4304 19.9234 6.4304Z" fill="#0E6F3B" stroke="#838383" stroke-width="0.28" stroke-miterlimit="10"/>
<path d="M19.9323 10.1823C20.5194 10.1823 20.9954 9.70693 20.9954 9.12047C20.9954 8.53401 20.5194 8.05859 19.9323 8.05859C19.3451 8.05859 18.8691 8.53401 18.8691 9.12047C18.8691 9.70693 19.3451 10.1823 19.9323 10.1823Z" fill="#0E6F3B" stroke="#838383" stroke-width="0.28" stroke-miterlimit="10"/>
<path d="M19.9234 11.8117C21.4107 11.8117 22.6164 10.6075 22.6164 9.12194C22.6164 7.6364 21.4107 6.43213 19.9234 6.43213C18.4361 6.43213 17.2305 7.6364 17.2305 9.12194C17.2305 10.6075 18.4361 11.8117 19.9234 11.8117Z" fill="#0E6F3B" stroke="#838383" stroke-width="0.28" stroke-miterlimit="10"/>
<path d="M19.943 15.5627C20.5301 15.5627 21.0061 15.0873 21.0061 14.5008C21.0061 13.9144 20.5301 13.439 19.943 13.439C19.3559 13.439 18.8799 13.9144 18.8799 14.5008C18.8799 15.0873 19.3559 15.5627 19.943 15.5627Z" fill="#0E6F3B" stroke="#838383" stroke-width="0.28" stroke-miterlimit="10"/>
<path d="M19.9322 17.1907C21.4195 17.1907 22.6252 15.9864 22.6252 14.5008C22.6252 13.0153 21.4195 11.811 19.9322 11.811C18.4449 11.811 17.2393 13.0153 17.2393 14.5008C17.2393 15.9864 18.4449 17.1907 19.9322 17.1907Z" fill="#0E6F3B" stroke="#838383" stroke-width="0.28" stroke-miterlimit="10"/>
<path d="M19.9323 20.9426C20.5194 20.9426 20.9954 20.4672 20.9954 19.8807C20.9954 19.2943 20.5194 18.8188 19.9323 18.8188C19.3451 18.8188 18.8691 19.2943 18.8691 19.8807C18.8691 20.4672 19.3451 20.9426 19.9323 20.9426Z" fill="#0E6F3B" stroke="#838383" stroke-width="0.28" stroke-miterlimit="10"/>
<path d="M19.9234 22.572C21.4107 22.572 22.6164 21.3677 22.6164 19.8822C22.6164 18.3967 21.4107 17.1924 19.9234 17.1924C18.4361 17.1924 17.2305 18.3967 17.2305 19.8822C17.2305 21.3677 18.4361 22.572 19.9234 22.572Z" fill="#0E6F3B" stroke="#838383" stroke-width="0.28" stroke-miterlimit="10"/>
<path d="M19.9323 26.324C20.5194 26.324 20.9954 25.8485 20.9954 25.2621C20.9954 24.6756 20.5194 24.2002 19.9323 24.2002C19.3451 24.2002 18.8691 24.6756 18.8691 25.2621C18.8691 25.8485 19.3451 26.324 19.9323 26.324Z" fill="#0E6F3B" stroke="#838383" stroke-width="0.28" stroke-miterlimit="10"/>
<path d="M19.9234 27.9509C21.4107 27.9509 22.6164 26.7466 22.6164 25.2611C22.6164 23.7756 21.4107 22.5713 19.9234 22.5713C18.4361 22.5713 17.2305 23.7756 17.2305 25.2611C17.2305 26.7466 18.4361 27.9509 19.9234 27.9509Z" fill="#0E6F3B" stroke="#838383" stroke-width="0.28" stroke-miterlimit="10"/>
<path d="M14.5377 4.80246C15.1249 4.80246 15.6008 4.32704 15.6008 3.74058C15.6008 3.15413 15.1249 2.67871 14.5377 2.67871C13.9506 2.67871 13.4746 3.15413 13.4746 3.74058C13.4746 4.32704 13.9506 4.80246 14.5377 4.80246Z" fill="#0E6F3B" stroke="#838383" stroke-width="0.28" stroke-miterlimit="10"/>
<path d="M14.5279 6.4304C16.0152 6.4304 17.2209 5.22613 17.2209 3.74059C17.2209 2.25505 16.0152 1.05078 14.5279 1.05078C13.0406 1.05078 11.835 2.25505 11.835 3.74059C11.835 5.22613 13.0406 6.4304 14.5279 6.4304Z" fill="#0E6F3B" stroke="#838383" stroke-width="0.28" stroke-miterlimit="10"/>
<path d="M14.5377 10.1823C15.1249 10.1823 15.6008 9.70693 15.6008 9.12047C15.6008 8.53401 15.1249 8.05859 14.5377 8.05859C13.9506 8.05859 13.4746 8.53401 13.4746 9.12047C13.4746 9.70693 13.9506 10.1823 14.5377 10.1823Z" fill="#0E6F3B" stroke="#838383" stroke-width="0.28" stroke-miterlimit="10"/>
<path d="M14.5279 11.8117C16.0152 11.8117 17.2209 10.6075 17.2209 9.12194C17.2209 7.6364 16.0152 6.43213 14.5279 6.43213C13.0406 6.43213 11.835 7.6364 11.835 9.12194C11.835 10.6075 13.0406 11.8117 14.5279 11.8117Z" fill="#0E6F3B" stroke="#838383" stroke-width="0.28" stroke-miterlimit="10"/>
<path d="M14.5455 15.5627C15.1327 15.5627 15.6086 15.0873 15.6086 14.5008C15.6086 13.9144 15.1327 13.439 14.5455 13.439C13.9584 13.439 13.4824 13.9144 13.4824 14.5008C13.4824 15.0873 13.9584 15.5627 14.5455 15.5627Z" fill="#0E6F3B" stroke="#838383" stroke-width="0.28" stroke-miterlimit="10"/>
<path d="M14.5357 17.1907C16.023 17.1907 17.2287 15.9864 17.2287 14.5008C17.2287 13.0153 16.023 11.811 14.5357 11.811C13.0485 11.811 11.8428 13.0153 11.8428 14.5008C11.8428 15.9864 13.0485 17.1907 14.5357 17.1907Z" fill="#0E6F3B" stroke="#838383" stroke-width="0.28" stroke-miterlimit="10"/>
<path d="M14.5377 20.9426C15.1249 20.9426 15.6008 20.4672 15.6008 19.8807C15.6008 19.2943 15.1249 18.8188 14.5377 18.8188C13.9506 18.8188 13.4746 19.2943 13.4746 19.8807C13.4746 20.4672 13.9506 20.9426 14.5377 20.9426Z" fill="#0E6F3B" stroke="#838383" stroke-width="0.28" stroke-miterlimit="10"/>
<path d="M14.5279 22.572C16.0152 22.572 17.2209 21.3677 17.2209 19.8822C17.2209 18.3967 16.0152 17.1924 14.5279 17.1924C13.0406 17.1924 11.835 18.3967 11.835 19.8822C11.835 21.3677 13.0406 22.572 14.5279 22.572Z" fill="#0E6F3B" stroke="#838383" stroke-width="0.28" stroke-miterlimit="10"/>
<path d="M14.5377 26.324C15.1249 26.324 15.6008 25.8485 15.6008 25.2621C15.6008 24.6756 15.1249 24.2002 14.5377 24.2002C13.9506 24.2002 13.4746 24.6756 13.4746 25.2621C13.4746 25.8485 13.9506 26.324 14.5377 26.324Z" fill="#0E6F3B" stroke="#838383" stroke-width="0.28" stroke-miterlimit="10"/>
<path d="M14.5279 27.9509C16.0152 27.9509 17.2209 26.7466 17.2209 25.2611C17.2209 23.7756 16.0152 22.5713 14.5279 22.5713C13.0406 22.5713 11.835 23.7756 11.835 25.2611C11.835 26.7466 13.0406 27.9509 14.5279 27.9509Z" fill="#0E6F3B" stroke="#838383" stroke-width="0.28" stroke-miterlimit="10"/>
<path d="M9.13928 4.80246C9.72642 4.80246 10.2024 4.32704 10.2024 3.74058C10.2024 3.15413 9.72642 2.67871 9.13928 2.67871C8.55214 2.67871 8.07617 3.15413 8.07617 3.74058C8.07617 4.32704 8.55214 4.80246 9.13928 4.80246Z" fill="#0E6F3B" stroke="#838383" stroke-width="0.28" stroke-miterlimit="10"/>
<path d="M9.12849 6.4304C10.6158 6.4304 11.8214 5.22613 11.8214 3.74059C11.8214 2.25505 10.6158 1.05078 9.12849 1.05078C7.64122 1.05078 6.43555 2.25505 6.43555 3.74059C6.43555 5.22613 7.64122 6.4304 9.12849 6.4304Z" fill="#0E6F3B" stroke="#838383" stroke-width="0.28" stroke-miterlimit="10"/>
<path d="M9.13928 10.1823C9.72642 10.1823 10.2024 9.70693 10.2024 9.12047C10.2024 8.53401 9.72642 8.05859 9.13928 8.05859C8.55214 8.05859 8.07617 8.53401 8.07617 9.12047C8.07617 9.70693 8.55214 10.1823 9.13928 10.1823Z" fill="#0E6F3B" stroke="#838383" stroke-width="0.28" stroke-miterlimit="10"/>
<path d="M9.12849 11.8117C10.6158 11.8117 11.8214 10.6075 11.8214 9.12194C11.8214 7.6364 10.6158 6.43213 9.12849 6.43213C7.64122 6.43213 6.43555 7.6364 6.43555 9.12194C6.43555 10.6075 7.64122 11.8117 9.12849 11.8117Z" fill="#0E6F3B" stroke="#838383" stroke-width="0.28" stroke-miterlimit="10"/>
<path d="M9.14808 15.5627C9.73522 15.5627 10.2112 15.0873 10.2112 14.5008C10.2112 13.9144 9.73522 13.439 9.14808 13.439C8.56094 13.439 8.08496 13.9144 8.08496 14.5008C8.08496 15.0873 8.56094 15.5627 9.14808 15.5627Z" fill="#0E6F3B" stroke="#838383" stroke-width="0.28" stroke-miterlimit="10"/>
<path d="M9.14021 17.1907C10.6275 17.1907 11.8332 15.9864 11.8332 14.5008C11.8332 13.0153 10.6275 11.811 9.14021 11.811C7.65293 11.811 6.44727 13.0153 6.44727 14.5008C6.44727 15.9864 7.65293 17.1907 9.14021 17.1907Z" fill="#0E6F3B" stroke="#838383" stroke-width="0.28" stroke-miterlimit="10"/>
<path d="M9.13928 20.9426C9.72642 20.9426 10.2024 20.4672 10.2024 19.8807C10.2024 19.2943 9.72642 18.8188 9.13928 18.8188C8.55214 18.8188 8.07617 19.2943 8.07617 19.8807C8.07617 20.4672 8.55214 20.9426 9.13928 20.9426Z" fill="#0E6F3B" stroke="#838383" stroke-width="0.28" stroke-miterlimit="10"/>
<path d="M9.12849 22.572C10.6158 22.572 11.8214 21.3677 11.8214 19.8822C11.8214 18.3967 10.6158 17.1924 9.12849 17.1924C7.64122 17.1924 6.43555 18.3967 6.43555 19.8822C6.43555 21.3677 7.64122 22.572 9.12849 22.572Z" fill="#0E6F3B" stroke="#838383" stroke-width="0.28" stroke-miterlimit="10"/>
<path d="M9.13928 26.324C9.72642 26.324 10.2024 25.8485 10.2024 25.2621C10.2024 24.6756 9.72642 24.2002 9.13928 24.2002C8.55214 24.2002 8.07617 24.6756 8.07617 25.2621C8.07617 25.8485 8.55214 26.324 9.13928 26.324Z" fill="#0E6F3B" stroke="#838383" stroke-width="0.28" stroke-miterlimit="10"/>
<path d="M9.12849 27.9509C10.6158 27.9509 11.8214 26.7466 11.8214 25.2611C11.8214 23.7756 10.6158 22.5713 9.12849 22.5713C7.64122 22.5713 6.43555 23.7756 6.43555 25.2611C6.43555 26.7466 7.64122 27.9509 9.12849 27.9509Z" fill="#0E6F3B" stroke="#838383" stroke-width="0.28" stroke-miterlimit="10"/>
<path d="M3.74377 4.80246C4.33091 4.80246 4.80689 4.32704 4.80689 3.74058C4.80689 3.15413 4.33091 2.67871 3.74377 2.67871C3.15663 2.67871 2.68066 3.15413 2.68066 3.74058C2.68066 4.32704 3.15663 4.80246 3.74377 4.80246Z" fill="#0E6F3B" stroke="#838383" stroke-width="0.28" stroke-miterlimit="10"/>
<path d="M3.73396 6.4304C5.22123 6.4304 6.42691 5.22613 6.42691 3.74059C6.42691 2.25505 5.22123 1.05078 3.73396 1.05078C2.24668 1.05078 1.04102 2.25505 1.04102 3.74059C1.04102 5.22613 2.24668 6.4304 3.73396 6.4304Z" fill="#0E6F3B" stroke="#838383" stroke-width="0.28" stroke-miterlimit="10"/>
<path d="M3.74377 10.1823C4.33091 10.1823 4.80689 9.70693 4.80689 9.12047C4.80689 8.53401 4.33091 8.05859 3.74377 8.05859C3.15663 8.05859 2.68066 8.53401 2.68066 9.12047C2.68066 9.70693 3.15663 10.1823 3.74377 10.1823Z" fill="#0E6F3B" stroke="#838383" stroke-width="0.28" stroke-miterlimit="10"/>
<path d="M3.73396 11.8117C5.22123 11.8117 6.42691 10.6075 6.42691 9.12194C6.42691 7.6364 5.22123 6.43213 3.73396 6.43213C2.24668 6.43213 1.04102 7.6364 1.04102 9.12194C1.04102 10.6075 2.24668 11.8117 3.73396 11.8117Z" fill="#0E6F3B" stroke="#838383" stroke-width="0.28" stroke-miterlimit="10"/>
<path d="M3.75354 15.5627C4.34068 15.5627 4.81666 15.0873 4.81666 14.5008C4.81666 13.9144 4.34068 13.439 3.75354 13.439C3.1664 13.439 2.69043 13.9144 2.69043 14.5008C2.69043 15.0873 3.1664 15.5627 3.75354 15.5627Z" fill="#0E6F3B" stroke="#838383" stroke-width="0.28" stroke-miterlimit="10"/>
<path d="M3.74372 17.1907C5.231 17.1907 6.43667 15.9864 6.43667 14.5008C6.43667 13.0153 5.231 11.811 3.74372 11.811C2.25645 11.811 1.05078 13.0153 1.05078 14.5008C1.05078 15.9864 2.25645 17.1907 3.74372 17.1907Z" fill="#0E6F3B" stroke="#838383" stroke-width="0.28" stroke-miterlimit="10"/>
<path d="M3.74377 20.9426C4.33091 20.9426 4.80689 20.4672 4.80689 19.8807C4.80689 19.2943 4.33091 18.8188 3.74377 18.8188C3.15663 18.8188 2.68066 19.2943 2.68066 19.8807C2.68066 20.4672 3.15663 20.9426 3.74377 20.9426Z" fill="#0E6F3B" stroke="#838383" stroke-width="0.28" stroke-miterlimit="10"/>
<path d="M3.73396 22.5722C5.22123 22.5722 6.42691 21.368 6.42691 19.8824C6.42691 18.3969 5.22123 17.1926 3.73396 17.1926C2.24668 17.1926 1.04102 18.3969 1.04102 19.8824C1.04102 21.368 2.24668 22.5722 3.73396 22.5722Z" fill="#0E6F3B" stroke="#838383" stroke-width="0.28" stroke-miterlimit="10"/>
<path d="M3.74377 26.324C4.33091 26.324 4.80689 25.8485 4.80689 25.2621C4.80689 24.6756 4.33091 24.2002 3.74377 24.2002C3.15663 24.2002 2.68066 24.6756 2.68066 25.2621C2.68066 25.8485 3.15663 26.324 3.74377 26.324Z" fill="#0E6F3B" stroke="#838383" stroke-width="0.28" stroke-miterlimit="10"/>
<path d="M3.73396 27.9511C5.22123 27.9511 6.42691 26.7469 6.42691 25.2613C6.42691 23.7758 5.22123 22.5715 3.73396 22.5715C2.24668 22.5715 1.04102 23.7758 1.04102 25.2613C1.04102 26.7469 2.24668 27.9511 3.73396 27.9511Z" fill="#0E6F3B" stroke="#838383" stroke-width="0.28" stroke-miterlimit="10"/>
<path d="M63.0721 1.04834H3.77073C2.26746 1.04834 1.04883 2.26556 1.04883 3.76707V25.2318C1.04883 26.7333 2.26746 27.9506 3.77073 27.9506H63.0721C64.5754 27.9506 65.794 26.7333 65.794 25.2318V3.76707C65.794 2.26556 64.5754 1.04834 63.0721 1.04834Z" fill="#0E6F3B"/>
<path d="M63.0729 1H3.77016C2.24024 1 1 2.2388 1 3.76693V25.2331C1 26.7612 2.24024 28 3.77016 28H63.0729C64.6028 28 65.8431 26.7612 65.8431 25.2331V3.76693C65.8431 2.2388 64.6028 1 63.0729 1Z" stroke="#A7A9AC" stroke-width="0.71" stroke-miterlimit="10"/>
<path d="M55.0824 3.73877H9.07758C7.62382 3.73877 6.44531 4.91591 6.44531 6.36798V22.6308C6.44531 24.0828 7.62382 25.26 9.07758 25.26H55.0824C56.5362 25.26 57.7147 24.0828 57.7147 22.6308V6.36798C57.7147 4.91591 56.5362 3.73877 55.0824 3.73877Z" fill="#0E6F3B" stroke="#A7A9AC" stroke-width="0.71" stroke-miterlimit="10"/>
<path d="M64.179 6.42969H14.5284C13.0457 6.42969 11.8438 7.63026 11.8438 9.11123V19.8897C11.8438 21.3707 13.0457 22.5713 14.5284 22.5713H64.179C65.6617 22.5713 66.8637 21.3707 66.8637 19.8897V9.11123C66.8637 7.63026 65.6617 6.42969 64.179 6.42969Z" fill="#0E6F3B"/>
<path d="M63.3951 6.5H14.6933C13.2129 6.5 12.0127 7.70424 12.0127 9.18974V19.8103C12.0127 21.2958 13.2129 22.5 14.6933 22.5H63.3951C64.8755 22.5 66.0757 21.2958 66.0757 19.8103V9.18974C66.0757 7.70424 64.8755 6.5 63.3951 6.5Z" stroke="#A7A9AC" stroke-width="0.71" stroke-miterlimit="10"/>
<path d="M63.0721 1.04736H3.77073C2.26746 1.04736 1.04883 2.26458 1.04883 3.7661V25.2308C1.04883 26.7324 2.26746 27.9496 3.77073 27.9496H63.0721C64.5754 27.9496 65.794 26.7324 65.794 25.2308V3.7661C65.794 2.26458 64.5754 1.04736 63.0721 1.04736Z" fill="#A8A8A8"/>
<path d="M55.0824 3.73828H9.07758C7.62382 3.73828 6.44531 4.91542 6.44531 6.36749V22.6303C6.44531 24.0824 7.62382 25.2595 9.07758 25.2595H55.0824C56.5362 25.2595 57.7147 24.0824 57.7147 22.6303V6.36749C57.7147 4.91542 56.5362 3.73828 55.0824 3.73828Z" fill="#231F20"/>
<path d="M14.5264 6.55249H64.1768C65.5906 6.55249 66.7363 7.69733 66.7363 9.10913V19.8875C66.7363 21.2993 65.5906 22.4441 64.1768 22.4441H14.5264C13.1126 22.444 11.9668 21.2992 11.9668 19.8875V9.10913C11.9668 7.69736 13.1126 6.55255 14.5264 6.55249Z" fill="#A8A8A8" stroke="#231F20" stroke-width="0.25"/>
<path d="M64.1773 6.29053H14.5267C12.9678 6.29053 11.7041 7.55276 11.7041 9.1098V19.8883C11.7041 21.4454 12.9678 22.7076 14.5267 22.7076H64.1773C65.7361 22.7076 66.9998 21.4454 66.9998 19.8883V9.1098C66.9998 7.55276 65.7361 6.29053 64.1773 6.29053Z" stroke="#231F20" stroke-width="0.25" stroke-miterlimit="10"/>
<mask id="mask0_17_24148" style="mask-type:luminance" maskUnits="userSpaceOnUse" x="13" y="8" width="52" height="12">
<path d="M64.1495 8.39502H13.6826V19.1377H64.1495V8.39502Z" fill="white"/>
</mask>
<g mask="url(#mask0_17_24148)">
<path opacity="0.93" d="M34.1256 11.059C33.4734 11.059 32.8487 11.3138 32.3813 11.7683C31.394 10.8056 29.8125 10.8235 28.8472 11.811C28.3936 12.2751 28.1385 12.899 28.1357 13.5477V15.0586V17.2291H29.6456V15.0586V13.5477C29.6456 13.0023 30.0882 12.5588 30.6343 12.5588C31.1803 12.5588 31.6243 13.0009 31.6243 13.5463V15.0586V17.2305H33.1342V13.5463C33.1369 13.0023 33.5782 12.563 34.1228 12.563C34.6675 12.563 35.1101 13.0037 35.1115 13.5477V17.2291H36.6213V13.5477C36.6172 12.1718 35.4989 11.0576 34.1214 11.059H34.1256Z" fill="white"/>
<path opacity="0.93" d="M57.7358 14.0353V12.523H56.7554V11.0962H55.2387V13.2282H55.2373V14.7404C55.2401 16.1177 56.3583 17.2319 57.7358 17.2319V15.7266C57.1898 15.7266 56.7485 15.2858 56.7472 14.7404V14.0353H57.7358Z" fill="white"/>
<path opacity="0.93" d="M53.4776 14.7404V11.0962H51.9692V13.2282H51.9678V14.7404C51.9705 16.1177 53.0888 17.2319 54.4677 17.2319V15.7266C53.9216 15.7266 53.479 15.2858 53.4776 14.7404Z" fill="white"/>
<path opacity="0.93" d="M21.5985 11.093H20.0817V15.7317C19.5371 15.7317 19.0945 15.2896 19.0931 14.7455V12.5846H19.0917V11.093H17.8935C16.5146 11.093 15.3977 12.2072 15.3936 13.5845V17.2288H16.9034V13.5845C16.9034 13.1603 17.1778 12.7829 17.5805 12.6493V14.7455C17.5832 16.1214 18.7015 17.2356 20.079 17.237H21.5957V11.0944L21.5985 11.093Z" fill="white"/>
<path opacity="0.93" d="M39.8944 11.0625C38.5156 11.0625 37.3973 12.1767 37.3945 13.554V15.0662V17.2354H38.9044V15.0662V14.9423H40.8831V15.0662V17.2354H42.393V13.554C42.3902 12.1767 41.2719 11.0625 39.8931 11.0625H39.8944ZM39.8944 12.5679C40.3908 12.5679 40.81 12.9356 40.8748 13.4273H38.9141C38.9789 12.9356 39.398 12.5692 39.8944 12.5692V12.5679Z" fill="white"/>
<path opacity="0.93" d="M24.8681 11.0625C23.4892 11.0625 22.3723 12.1767 22.3682 13.554V15.0662V17.2354H23.878V15.0662V14.9423H25.8567V15.0662V17.2354H27.368V13.554C27.3652 12.1767 26.2469 11.0625 24.8681 11.0625ZM24.8681 12.5679C25.3645 12.5679 25.7836 12.9356 25.8484 13.4273H23.8891C23.9539 12.9356 24.3731 12.5692 24.8694 12.5692L24.8681 12.5679Z" fill="white"/>
<path opacity="0.93" d="M61.0044 12.6001H63.325V11.0947H60.9768C59.6297 11.1113 58.5376 12.191 58.5086 13.5366H58.5059V14.7376C58.5086 16.1149 59.6269 17.2291 61.0058 17.2291H63.3264V15.7237H61.0071C60.5438 15.7237 60.1426 15.4014 60.0419 14.9497H63.132V13.4347H60.0309C60.1067 12.954 60.5204 12.6015 61.0071 12.6001H61.0044Z" fill="white"/>
<path opacity="0.93" d="M45.5014 13.4378C45.5745 12.9557 45.9895 12.5976 46.479 12.5976H48.71V11.0923H46.4666C45.0932 11.0992 43.9832 12.212 43.9805 13.5838V14.9528H49.6725C49.5718 15.4059 49.1706 15.7282 48.7073 15.7296H43.986V17.2377H48.7114V17.2335C50.0062 17.2308 51.0844 16.2405 51.1975 14.9528V13.4378H45.5041H45.5014Z" fill="white"/>
</g>
</svg>
