<svg width="22" height="22" viewBox="0 0 22 22" fill="none" xmlns="http://www.w3.org/2000/svg">
<path d="M9.90643 0C4.44498 0 0 4.39804 0 9.80182C0 15.2056 4.44498 19.6036 9.90643 19.6036C15.3679 19.6036 19.8129 15.2056 19.8129 9.80182C19.8129 4.39472 15.3679 0 9.90643 0ZM9.90643 18.2726C5.18301 18.2726 1.34188 14.472 1.34188 9.7985C1.34188 5.12496 5.18301 1.32439 9.90643 1.32439C14.6299 1.32439 18.471 5.12496 18.471 9.7985C18.471 14.472 14.6265 18.2726 9.90643 18.2726Z" fill="white"/>
<path d="M19.0814 18.1098C18.8231 17.8476 18.397 17.8443 18.132 18.0998C17.867 18.3554 17.8636 18.777 18.1219 19.0392L20.8493 21.8008C20.9801 21.9336 21.1546 22 21.329 22C21.4968 22 21.6679 21.9369 21.7987 21.8108C22.0637 21.5552 22.0671 21.1337 21.8088 20.8714L19.0814 18.1098Z" fill="white"/>
</svg>
