<svg width="17" height="18" viewBox="0 0 17 18" fill="none" xmlns="http://www.w3.org/2000/svg">
<path fill-rule="evenodd" clip-rule="evenodd" d="M14.0152 3.2532C10.844 0.0830121 5.70249 0.0828269 2.5315 3.2532C-0.205569 5.98956 -0.628036 10.2777 1.5087 13.4865L1.50815 13.4868C1.56824 13.5778 1.58562 13.6953 1.54476 13.8053L0.401045 16.8639L3.4404 15.7278C3.54708 15.6807 3.67465 15.6874 3.77912 15.7565C9.13233 19.3097 16.3934 15.4972 16.3934 8.99357C16.3936 6.75184 15.4847 4.7223 14.0152 3.2532ZM7.09321 8.79284C7.67838 9.59449 8.4207 10.2218 9.29559 10.6861C9.55461 10.4046 9.76298 10.1009 10.0869 10.0224V10.022C10.2346 9.98635 10.3907 9.99355 10.5397 10.0414L12.0733 10.534C12.4154 10.6438 12.6757 10.9614 12.6391 11.3375C12.6101 11.6353 12.542 12.6275 12.4559 12.8491C12.3266 13.182 11.9973 13.3859 11.6409 13.3595C7.51198 13.0539 4.21212 9.75493 3.9065 5.62709C3.87137 5.15279 4.2075 4.79661 4.70226 4.74855C6.76467 4.54763 6.46219 4.35225 7.22578 6.72781C7.27366 6.87679 7.28087 7.03298 7.24519 7.18067H7.24482C7.16624 7.5045 6.86229 7.71282 6.58089 7.97159C6.7325 8.25828 6.90352 8.53295 7.09321 8.79284ZM7.22874 10.0366C7.74734 10.5551 8.35192 10.9902 9.00291 11.3309C9.68052 11.6856 10.1063 10.7266 10.2518 10.7094L11.9276 11.2543L11.815 12.4974C11.8067 12.5819 11.7897 12.6597 11.6904 12.6523C7.91393 12.373 4.89306 9.35309 4.61333 5.57737L4.64254 5.4916C4.70022 5.42931 5.83524 5.34891 5.99536 5.33338C6.07393 5.3258 6.48715 6.74408 6.55149 6.94426C6.63414 7.20174 5.55107 7.53001 5.93545 8.26438C6.27564 8.91391 6.71105 9.51889 7.22874 10.0366Z" fill="#807F63"/>
</svg>
