<svg width="24" height="24" viewBox="0 0 24 24" fill="none" xmlns="http://www.w3.org/2000/svg">
<path d="M15.9217 8.65156C15.8306 8.6878 15.7443 8.73523 15.6648 8.79275C15.0825 9.33181 14.5066 9.87944 13.9265 10.4228L8.08189 15.9054L2.96094 14.0187L19.0174 4.98291C18.1804 9.68905 17.3518 14.3246 16.5169 19.0115C15.2902 18.5837 14.0934 18.113 12.8582 17.6767L9.9787 21.0394C9.9787 19.9313 9.9787 18.9003 9.9787 17.8713C9.9787 17.4435 9.99368 17.0157 10.0001 16.6049C10.2442 16.2734 10.4839 15.9418 10.728 15.6124C12.4407 13.3306 14.1484 11.0403 15.8511 8.74141C15.8725 8.71146 15.8896 8.67509 15.911 8.643L15.926 8.62803C15.9282 8.60664 15.926 8.63231 15.9217 8.65156Z" fill="#807F63"/>
</svg>
